{
    "asset" : {
        "generator" : "Khronos glTF Blender I/O v1.8.19",
        "version" : "2.0"
    },
    "scene" : 0,
    "scenes" : [
        {
            "name" : "Scene",
            "nodes" : [
                0
            ]
        }
    ],
    "nodes" : [
        {
            "mesh" : 0,
            "name" : "Text",
            "rotation" : [
                0,
                0.7071068286895752,
                -0.7071068286895752,
                -1.1520232590100932e-07
            ],
            "scale" : [
                31.335905075073242,
                31.335905075073242,
                31.335905075073242
            ],
            "translation" : [
                -21.079923629760742,
                13.176060676574707,
                11.338423728942871
            ]
        }
    ],
    "animations" : [
        {
            "channels" : [
                {
                    "sampler" : 0,
                    "target" : {
                        "node" : 0,
                        "path" : "rotation"
                    }
                }
            ],
            "name" : "TextAction",
            "samplers" : [
                {
                    "input" : 4,
                    "interpolation" : "LINEAR",
                    "output" : 5
                }
            ]
        }
    ],
    "materials" : [
        {
            "doubleSided" : true,
            "name" : "realchrome",
            "pbrMetallicRoughness" : {}
        }
    ],
    "meshes" : [
        {
            "name" : "Text",
            "primitives" : [
                {
                    "attributes" : {
                        "POSITION" : 0,
                        "NORMAL" : 1,
                        "TEXCOORD_0" : 2
                    },
                    "indices" : 3,
                    "material" : 0
                }
            ]
        }
    ],
    "accessors" : [
        {
            "bufferView" : 0,
            "componentType" : 5126,
            "count" : 9031,
            "max" : [
                0.49699854850769043,
                0.04999999701976776,
                0.4582456648349762
            ],
            "min" : [
                -0.5175204873085022,
                -0.04999999701976776,
                -0.3118692636489868
            ],
            "type" : "VEC3"
        },
        {
            "bufferView" : 1,
            "componentType" : 5126,
            "count" : 9031,
            "type" : "VEC3"
        },
        {
            "bufferView" : 2,
            "componentType" : 5126,
            "count" : 9031,
            "type" : "VEC2"
        },
        {
            "bufferView" : 3,
            "componentType" : 5123,
            "count" : 16368,
            "type" : "SCALAR"
        },
        {
            "bufferView" : 4,
            "componentType" : 5126,
            "count" : 241,
            "max" : [
                10
            ],
            "min" : [
                0
            ],
            "type" : "SCALAR"
        },
        {
            "bufferView" : 5,
            "componentType" : 5126,
            "count" : 241,
            "type" : "VEC4"
        }
    ],
    "bufferViews" : [
        {
            "buffer" : 0,
            "byteLength" : 108372,
            "byteOffset" : 0
        },
        {
            "buffer" : 0,
            "byteLength" : 108372,
            "byteOffset" : 108372
        },
        {
            "buffer" : 0,
            "byteLength" : 72248,
            "byteOffset" : 216744
        },
        {
            "buffer" : 0,
            "byteLength" : 32736,
            "byteOffset" : 288992
        },
        {
            "buffer" : 0,
            "byteLength" : 964,
            "byteOffset" : 321728
        },
        {
            "buffer" : 0,
            "byteLength" : 3856,
            "byteOffset" : 322692
        }
    ],
    "buffers" : [
        {
            "byteLength" : 326548,
            "uri" : "data:application/octet-stream;base64,"
        }
    ]
}
