{
    "asset" : {
        "generator" : "Khronos glTF Blender I/O v1.8.19",
        "version" : "2.0"
    },
    "scene" : 0,
    "scenes" : [
        {
            "name" : "Scene",
            "nodes" : [
                0
            ]
        }
    ],
    "nodes" : [
        {
            "mesh" : 0,
            "name" : "root",
            "rotation" : [
                0.7077202796936035,
                0.1725381761789322,
                -0.18825431168079376,
                0.6587282419204712
            ],
            "scale" : [
                233.36904907226562,
                233.36903381347656,
                233.36903381347656
            ],
            "translation" : [
                -7.019142150878906,
                14.03176498413086,
                -16.834335327148438
            ]
        }
    ],
    "materials" : [
        {
            "alphaMode" : "BLEND",
            "doubleSided" : true,
            "name" : "blinn1",
            "pbrMetallicRoughness" : {
                "baseColorTexture" : {
                    "index" : 0
                },
                "metallicFactor" : 0.5,
                "roughnessFactor" : 0.7487671971321106
            }
        }
    ],
    "meshes" : [
        {
            "name" : "Mesh",
            "primitives" : [
                {
                    "attributes" : {
                        "POSITION" : 0,
                        "NORMAL" : 1,
                        "TEXCOORD_0" : 2,
                        "COLOR_0" : 3
                    },
                    "indices" : 4,
                    "material" : 0
                }
            ]
        }
    ],
    "textures" : [
        {
            "sampler" : 0,
            "source" : 0
        }
    ],
    "images" : [
        {
            "bufferView" : 5,
            "mimeType" : "image/png",
            "name" : "2460"
        }
    ],
    "accessors" : [
        {
            "bufferView" : 0,
            "componentType" : 5126,
            "count" : 5052,
            "max" : [
                0.08422840386629105,
                0.24957045912742615,
                0.28299999237060547
            ],
            "min" : [
                -0.08702355623245239,
                0.14035719633102417,
                -0.31562817096710205
            ],
            "type" : "VEC3"
        },
        {
            "bufferView" : 1,
            "componentType" : 5126,
            "count" : 5052,
            "type" : "VEC3"
        },
        {
            "bufferView" : 2,
            "componentType" : 5126,
            "count" : 5052,
            "type" : "VEC2"
        },
        {
            "bufferView" : 3,
            "componentType" : 5123,
            "count" : 5052,
            "normalized" : true,
            "type" : "VEC4"
        },
        {
            "bufferView" : 4,
            "componentType" : 5123,
            "count" : 25566,
            "type" : "SCALAR"
        }
    ],
    "bufferViews" : [
        {
            "buffer" : 0,
            "byteLength" : 60624,
            "byteOffset" : 0
        },
        {
            "buffer" : 0,
            "byteLength" : 60624,
            "byteOffset" : 60624
        },
        {
            "buffer" : 0,
            "byteLength" : 40416,
            "byteOffset" : 121248
        },
        {
            "buffer" : 0,
            "byteLength" : 40416,
            "byteOffset" : 161664
        },
        {
            "buffer" : 0,
            "byteLength" : 51132,
            "byteOffset" : 202080
        },
        {
            "buffer" : 0,
            "byteLength" : 1826808,
            "byteOffset" : 253212
        }
    ],
    "samplers" : [
        {
            "magFilter" : 9729,
            "minFilter" : 9987
        }
    ],
    "buffers" : [
        {
            "byteLength" : 2080020,
            "uri" : "data:application/octet-stream;base64,"
        }
    ]
}
